<?xml version="1.0" encoding="UTF-8"?>
<svg width="80px" height="80px" viewBox="0 0 80 80" version="1.1" xmlns="http://www.w3.org/2000/svg" xmlns:xlink="http://www.w3.org/1999/xlink">
    <title>编组</title>
    <defs>
        <filter x="-6.9%" y="-13.0%" width="113.5%" height="128.3%" filterUnits="objectBoundingBox" id="filter-1">
            <feOffset dx="0" dy="2" in="SourceAlpha" result="shadowOffsetOuter1"></feOffset>
            <feGaussianBlur stdDeviation="8" in="shadowOffsetOuter1" result="shadowBlurOuter1"></feGaussianBlur>
            <feColorMatrix values="0 0 0 0 0.0254215547   0 0 0 0 0.105108005   0 0 0 0 0.224637681  0 0 0 0.0650677448 0" type="matrix" in="shadowBlurOuter1" result="shadowMatrixOuter1"></feColorMatrix>
            <feMerge>
                <feMergeNode in="shadowMatrixOuter1"></feMergeNode>
                <feMergeNode in="SourceGraphic"></feMergeNode>
            </feMerge>
        </filter>
    </defs>
    <g id="页面-1" stroke="none" stroke-width="1" fill="none" fill-rule="evenodd">
        <g id="Bots" transform="translate(-642, -186)">
            <g id="编组-28" filter="url(#filter-1)" transform="translate(634, 176)">
                <g id="编组" transform="translate(24, 24)">
                    <path d="M24,0 C37.254834,-2.4348735e-15 48,10.745166 48,24 C48,37.254834 37.254834,48 24,48 C10.745166,48 1.623249e-15,37.254834 0,24 C-1.623249e-15,10.745166 10.745166,2.4348735e-15 24,0 Z" id="Fill-335" fill="#EAF1FF"></path>
                    <g id="编组-13" transform="translate(13.3333, 14)">
                        <path d="M3.155762,19.3509433 L4.57588,15.965612 C5.020564,14.918454 5.852552,14.0721207 6.89971,13.627438 C10.2276647,12.2073193 17.1130867,9.08019 17.6151493,8.64985067 C18.2893467,8.07606533 19.1500233,6.42643267 16.59668,5.996094 C16.59668,5.996094 19.307816,6.02478333 19.5947093,8.01868733 C19.9389793,10.5146527 19.063956,12.36511 18.1889347,12.8384827 C17.500392,13.225788 4.346366,19.3652893 4.346366,19.3652893 L3.155762,19.3509433 Z" id="Fill-228" fill="#00B8A9"></path>
                        <path d="M2.23776267,19.279182 L3.70091467,15.6499913 C4.17428733,14.53111 5.364892,13.469608 6.48377267,12.9962347 C6.52680733,12.98189 6.641564,12.9388567 6.68459733,12.9101673 L10.0412413,5.19275667 C10.2851,4.54724733 11.188812,4.54724733 11.418326,5.19275667 L13.3835413,9.75434867 C15.3057213,8.89367067 16.5823933,8.30554067 17.055766,8.04733733 L14.6458673,2.68244667 C14.0433933,1.06150267 12.508518,0 10.8015073,0 C9.080152,0 7.55962067,1.06150267 6.957146,2.66810067 L0,19.3795967 L2.19472867,19.39394 C2.20907333,19.3652507 2.223418,19.3078713 2.23776267,19.279182 Z" id="Fill-229" fill="#0066FF"></path>
                        <path d="M18.992374,13.2112633 C18.8345827,13.369054 18.676794,13.4981553 18.5190027,13.5842233 C18.318178,13.6989807 17.0271607,14.3158 15.32015,15.1190993 L15.793522,16.553562 C16.3673073,18.2462287 17.9595627,19.3794547 19.7382967,19.3794547 L21.2731713,19.3794547 L18.992374,13.2112633 Z" id="Fill-230" fill="#0066FF"></path>
                    </g>
                </g>
            </g>
        </g>
    </g>
</svg>