<svg width="200" height="45" viewBox="0 0 200 45" fill="none" xmlns="http://www.w3.org/2000/svg">
<g clip-path="url(#clip0_42_119)">
<path d="M133.136 31.8717L127.757 10.0051H132.598C134.696 10.0051 136.471 11.4844 136.875 13.5554L139.806 28.8594L143.626 13.6899C145.078 7.96104 153.201 7.96104 154.653 13.663L158.553 28.8325L162.049 13.3672C162.507 11.3769 164.255 9.97825 166.299 9.97825H170.791L165.169 31.6028C163.448 38.1923 154.061 38.0848 152.501 31.4683L149.112 17.2133L145.858 31.7373C144.352 38.4613 134.804 38.5689 133.136 31.8717Z" fill="#1A1A1A"/>
<path d="M47.8481 2.3667H51.5867V31.8449C51.5867 34.2387 49.6233 36.2021 47.2295 36.2021H43.491V6.72388C43.491 4.33012 45.4275 2.3667 47.8481 2.3667Z" fill="#1A1A1A"/>
<path d="M92.0654 2.3667H95.804V31.8449C95.804 34.2387 93.8406 36.2021 91.4468 36.2021H87.7083V6.72388C87.7083 4.33012 89.6448 2.3667 92.0654 2.3667Z" fill="#1A1A1A"/>
<path d="M78.7519 23.6417H65.8418V31.5222C65.8418 33.916 64.4163 35.8794 62.0225 35.8794H57.6922L57.1543 6.67017C57.1543 4.27641 59.1177 2.31299 61.5115 2.31299H84.8036V5.40605C84.8036 7.79981 82.8402 9.76323 80.4464 9.76323H65.8418V16.568H83.1091V19.3114C83.1091 21.7051 81.1457 23.6417 78.7519 23.6417Z" fill="#1A1A1A"/>
<path d="M181.226 36.1485L171.678 10.0861H177.004C178.913 10.0861 180.581 11.3233 181.146 13.1253L185.53 27.0038L190.936 12.5067C191.581 10.8123 193.195 9.68262 195.024 9.68262H200L187.681 41.9042C187.036 43.5987 185.422 44.7014 183.62 44.7014H177.595L181.226 36.1485Z" fill="#1A1A1A"/>
<path d="M5.91724 36.2828L8.57996 29.9353C9.41374 27.9719 10.9737 26.385 12.9371 25.5512C19.1771 22.8885 32.0872 17.0251 33.0286 16.2182C34.2927 15.1424 35.9065 12.0493 31.119 11.2424C31.119 11.2424 36.2023 11.2962 36.7403 15.0348C37.3858 19.7147 35.7451 23.1843 34.1044 24.0719C32.8134 24.7981 8.14962 36.3097 8.14962 36.3097L5.91724 36.2828Z" fill="#00B8A9"/>
<path d="M4.1958 36.1485L6.93921 29.3437C7.82679 27.2458 10.0592 25.2555 12.1571 24.3679C12.2378 24.341 12.4529 24.2604 12.5336 24.2066L18.8273 9.73642C19.2846 8.52609 20.979 8.52609 21.4094 9.73642L25.0941 18.2894C28.6982 16.6756 31.092 15.5729 31.9796 15.0888L27.461 5.02959C26.3314 1.99032 23.4535 0 20.2528 0C17.0253 0 14.1743 1.99032 13.0446 5.00269L0 36.3367L4.11512 36.3636C4.14201 36.3098 4.16891 36.2023 4.1958 36.1485Z" fill="#0066FF"/>
<path d="M35.6105 24.7712C35.3147 25.0671 35.0188 25.3092 34.7229 25.4705C34.3464 25.6857 31.9257 26.8422 28.7251 28.3484L29.6127 31.0381C30.6885 34.2118 33.674 36.3366 37.0091 36.3366H39.887L35.6105 24.7712Z" fill="#0066FF"/>
<path d="M124.18 18.8809C125.888 18.8809 127.273 17.4961 127.273 15.7879C127.273 14.0796 125.888 12.6948 124.18 12.6948C122.471 12.6948 121.087 14.0796 121.087 15.7879C121.087 17.4961 122.471 18.8809 124.18 18.8809Z" fill="#1A1A1A"/>
<path d="M100.35 32.4903C101.88 32.4903 103.12 31.25 103.12 29.72C103.12 28.19 101.88 26.9497 100.35 26.9497C98.8197 26.9497 97.5793 28.19 97.5793 29.72C97.5793 31.25 98.8197 32.4903 100.35 32.4903Z" fill="#1A1A1A"/>
<path d="M109.898 14.5238C113.206 12.9638 117.429 13.4749 120.199 14.3893C120.441 13.5018 121.275 12.3721 122.297 11.9418C119.85 9.68249 116.057 7.96114 112.453 7.96114H112.426C104.546 7.88045 97.9829 14.9004 97.9829 22.4851C97.9829 23.803 98.1712 25.094 98.4939 26.2774C98.9781 26.0354 99.5967 25.7126 100.673 25.7126C102.69 25.7395 104.304 27.2188 104.304 29.1822C104.304 29.4243 104.304 29.5588 104.25 29.8008C107.558 30.6077 110.893 30.2043 110.893 30.2043C103.012 28.6712 101.802 18.2893 109.898 14.5238Z" fill="#1A1A1A"/>
<path d="M124.18 20.0643C121.92 20.0643 120.065 18.2891 120.065 16.0298C120.065 15.8685 120.065 15.8147 120.065 15.6533C116.918 14.685 114.443 14.7926 114.443 14.7926C117.94 15.6802 119.204 19.1229 119.527 20.8981C119.554 21.0594 119.58 21.2477 119.607 21.4629C119.661 21.8663 119.715 22.2967 119.715 22.727C119.715 23.6415 119.554 24.529 119.285 25.3628C118.505 28.0255 116.837 30.4462 111.189 31.4683C108.338 31.9793 106.025 31.8179 104.008 31.1724C103.765 31.8448 103.308 32.5172 102.421 32.9744C104.895 35.3951 108.687 36.8475 112.426 36.8475H112.48C120.065 36.8475 126.52 30.4462 126.52 22.8615C126.52 21.7856 126.385 20.6022 126.17 19.607C125.632 19.7953 124.744 20.0643 124.18 20.0643Z" fill="#1A1A1A"/>
</g>
<defs>
<clipPath id="clip0_42_119">
<rect width="200" height="44.6746" fill="white"/>
</clipPath>
</defs>
</svg>
