<?xml version="1.0" encoding="UTF-8"?>
<svg width="800px" height="800px" viewBox="0 0 800 800" version="1.1" xmlns="http://www.w3.org/2000/svg" xmlns:xlink="http://www.w3.org/1999/xlink">
    <title>编组备份</title>
    <g id="页面-1" stroke="none" stroke-width="1" fill="none" fill-rule="evenodd">
        <g id="编组备份">
            <path d="M400,0 C620.9139,-4.05812251e-14 800,179.0861 800,400 C800,620.9139 620.9139,800 400,800 C179.0861,800 2.705415e-14,620.9139 0,400 C-2.705415e-14,179.0861 179.0861,4.05812251e-14 400,0 Z" id="Fill-335" fill="#0066FF"></path>
            <g id="编组-13" transform="translate(140, 161)" fill="#FFFFFF">
                <path d="M77.1392386,472.949135 L111.85251,390.209524 C122.722336,364.616328 143.059396,343.931413 168.656057,333.063091 C250.004362,298.354505 418.311164,221.925512 430.583551,211.40775 C447.063586,197.384078 468.10191,157.066026 405.688154,146.54828 C405.688154,146.54828 471.958984,147.249466 478.971785,195.981724 C487.387099,256.984675 465.998086,302.211007 444.609122,313.780531 C427.77843,323.246515 106.242284,473.29976 106.242284,473.29976 L77.1392386,472.949135 Z" id="Fill-228"></path>
                <path d="M54.6997233,471.195243 L90.4649145,382.495557 C102.036005,355.149399 131.139067,329.205628 158.488912,317.636088 C159.540849,317.285495 162.345953,316.233734 163.397857,315.532549 L245.447442,126.914214 C251.408307,111.137563 273.498584,111.137563 279.108809,126.914214 L327.146404,238.40237 C374.132045,217.366863 405.338931,202.992599 416.910022,196.681948 L358.002617,65.560671 C343.275782,25.9437878 305.757391,0 264.031334,0 C221.954638,0 184.78687,25.9437878 170.060019,65.2100458 L0,473.64944 L53.6478031,474 C53.9984432,473.298815 54.3490833,471.896428 54.6997233,471.195243 Z" id="Fill-229"></path>
                <path d="M464.24834,322.891523 C460.391299,326.748025 456.534323,329.903342 452.677282,332.006898 C447.768337,334.811639 416.210795,349.887088 374.484738,369.520226 L386.055812,404.579389 C400.081383,445.949219 439.002368,473.645969 482.481625,473.645969 L520,473.645969 L464.24834,322.891523 Z" id="Fill-230"></path>
            </g>
        </g>
    </g>
</svg>