<?xml version="1.0" encoding="UTF-8"?>
<svg width="31.909757px" height="29.09091px" viewBox="0 0 31.909757 29.09091" version="1.1" xmlns="http://www.w3.org/2000/svg" xmlns:xlink="http://www.w3.org/1999/xlink">
    <title>编组备份</title>
    <g id="页面-1" stroke="none" stroke-width="1" fill="none" fill-rule="evenodd">
        <g id="编组-13">
            <path d="M4.733643,29.026415 L6.86382,23.948418 C7.530846,22.377681 8.778828,21.108181 10.349565,20.441157 C15.341497,18.310979 25.66963,13.620285 26.422724,12.974776 C27.43402,12.114098 28.725035,9.639649 24.89502,8.994141 C24.89502,8.994141 28.961724,9.037175 29.392064,12.028031 C29.908469,15.771979 28.595934,18.547665 27.283402,19.257724 C26.250588,19.838682 6.519549,29.047934 6.519549,29.047934 L4.733643,29.026415 Z" id="Fill-228" fill="#00B8A9"></path>
            <path d="M3.356644,28.918773 L5.551372,23.474987 C6.261431,21.796665 8.047338,20.204412 9.725659,19.494352 C9.790211,19.472835 9.962346,19.408285 10.026896,19.365251 L15.061862,7.789135 C15.42765,6.820871 16.783218,6.820871 17.127489,7.789135 L20.075312,14.631523 C22.958582,13.340506 24.87359,12.458311 25.583649,12.071006 L21.968801,4.02367 C21.06509,1.592254 18.762777,0 16.202261,0 C13.620228,0 11.339431,1.592254 10.435719,4.002151 L0,29.069395 L3.292093,29.09091 C3.31361,29.047876 3.335127,28.961807 3.356644,28.918773 Z" id="Fill-229" fill="#0066FF"></path>
            <path d="M28.488561,19.816895 C28.251874,20.053581 28.015191,20.247233 27.778504,20.376335 C27.477267,20.548471 25.540741,21.4737 22.980225,22.678649 L23.690283,24.830343 C24.550961,27.369343 26.939344,29.069182 29.607445,29.069182 L31.909757,29.069182 L28.488561,19.816895 Z" id="Fill-230" fill="#0066FF"></path>
        </g>
    </g>
</svg>