<svg width="1em" height="1em" viewBox="0 0 19.9999998 19.9999998" version="1.1" xmlns="http://www.w3.org/2000/svg" xmlns:xlink="http://www.w3.org/1999/xlink">
    <title>应用</title>
    <g id="页面-1" stroke="none" stroke-width="1" fill="none" fill-rule="evenodd">
        <g id="智能体" transform="translate(-28, -354)" fill="currentColor" fill-rule="nonzero">
            <g id="编组-4" transform="translate(12, 340)">
                <g id="应用" transform="translate(16, 14)">
                    <rect id="矩形" opacity="0" x="0" y="0" width="19.9999998" height="19.9999998"></rect>
                    <path d="M9.25128125,9.26276555 L9.25128125,4.65354685 C9.25128125,3.94976325 8.97178098,3.27478955 8.47412935,2.77714086 C7.97647772,2.27949216 7.30150237,2 6.59771876,2 L4.65356251,2 C3.94977619,2 3.27479847,2.27949431 2.77714639,2.77714638 C2.27949431,3.27479846 2,3.94977617 2,4.65356248 L2,6.60920308 C2,8.07472517 3.18804041,9.26276555 4.65356251,9.26276555 L9.25128125,9.26276555 Z M10.726625,9.26276555 L15.3464375,9.26276555 C16.8119096,9.26264476 17.9998792,8.07467513 18,6.60920308 L18,4.65356248 C18,3.18804039 16.8119596,2 15.3464375,2 L13.3801875,2 C12.6764012,2 12.0014235,2.27949431 11.5037714,2.77714638 C11.0061193,3.27479846 10.726625,3.94977617 10.726625,4.65356248 L10.726625,9.26276555 Z M9.25128125,10.7372343 L4.65356251,10.7372343 C3.94977619,10.7372343 3.27479847,11.0167286 2.77714639,11.5143807 C2.27949431,12.0120327 2,12.6870104 2,13.3907968 L2,15.3464374 C2,16.8119594 3.18804041,17.9999998 4.65356251,17.9999998 L6.59771876,17.9999998 C8.06324086,17.9999998 9.25128125,16.8119594 9.25128125,15.3464374 L9.25128125,10.7372343 Z M10.726625,10.7372343 L10.726625,15.346453 C10.726625,16.8116212 11.9141287,17.9995081 13.3792969,17.9999999 L15.3455469,17.9999999 C16.0494519,18.000178 16.724591,17.7206927 17.2224106,17.2230402 C17.7202302,16.7253877 18,16.0503424 18,15.3464374 L18,13.3907968 C18,11.9252747 16.8119596,10.7372343 15.3464375,10.7372343 L10.726625,10.7372343 Z" id="形状"></path>
                </g>
            </g>
        </g>
    </g>
</svg>
