<svg width="1em" height="1em" viewBox="0 0 16.0730658 16" version="1.1" xmlns="http://www.w3.org/2000/svg" xmlns:xlink="http://www.w3.org/1999/xlink">
    <title>编组 16</title>
    <g id="页面-1" stroke="none" stroke-width="1" fill="none" fill-rule="evenodd">
        <g id="智能体" transform="translate(-30, -296)">
            <g id="编组-29备份-6" transform="translate(12, 280)">
                <g id="编组-16" transform="translate(16, 14)">
                    <rect id="矩形" x="0" y="0" width="20" height="20"></rect>
                    <g id="编组" transform="translate(2, 2)" fill="currentColor">
                        <path d="M0,5.00146413 L0,3.51577793 C-6.81880169e-16,1.5740674 1.5740674,3.56686439e-16 3.51577793,0 L5.08031856,0 C6.15795717,6.90219419e-16 7.03155586,0.873598697 7.03155586,1.9512373 L7.03155586,1.9512373 L7.03155586,1.9512373 L13.022839,1.9512373 C14.7074328,1.9512373 16.0730658,3.31687037 16.0730658,5.00146413 C16.0730658,5.00146413 16.0730658,5.00146413 16.0730658,5.00146413 C16.0730658,5.00146413 10.7153772,5.00146413 0,5.00146413 Z" id="形状" fill-rule="nonzero"></path>
                        <path d="M15.5,6.5 L15.5,12 C15.5,12.9664983 15.1082492,13.8414983 14.4748737,14.4748737 C13.8414983,15.1082492 12.9664983,15.5 12,15.5 L4,15.5 C3.03350169,15.5 2.15850169,15.1082492 1.52512627,14.4748737 C0.891750844,13.8414983 0.5,12.9664983 0.5,12 L0.5,6.5 L15.5,6.5 Z" id="矩形" stroke="currentColor"></path>
                    </g>
                </g>
            </g>
        </g>
    </g>
</svg>
