<svg width="20px" height="20px" viewBox="0 0 20 20" version="1.1" xmlns="http://www.w3.org/2000/svg" xmlns:xlink="http://www.w3.org/1999/xlink">
    <title>talk</title>
    <g id="页面-1" stroke="none" stroke-width="1" fill="none" fill-rule="evenodd">
        <g id="智能体" transform="translate(-28, -114)" fill-rule="nonzero">
            <g id="编组-29备份-19" transform="translate(12, 100)">
                <g id="talk" transform="translate(16, 14)">
                    <rect id="矩形" fill="#000000" opacity="0" x="0" y="0" width="20" height="20"></rect>
                    <path d="M16.5681901,2 C17.9098072,2 19,3.1191601 19,4.49448819 L19,12.735958 C19,14.1112861 17.9077464,15.2304462 16.5681901,15.2304462 L14.6742635,15.2304462 L10.9688447,17.8509186 C10.8287065,17.9496063 10.663838,18 10.4989696,18 C10.3341011,18 10.1692326,17.9496063 10.0290944,17.8509186 L6.32573645,15.2283465 L4.43180992,15.2283465 C3.09019275,15.2283465 2,14.1091864 2,12.7338583 L2,4.49448819 C2,3.1191601 3.09225361,2 4.43180992,2 L16.5681901,2 Z M13.4,10 L5.6,10 C5.26862915,10 5,10.2686292 5,10.6 C5,10.9313708 5.26862915,11.2 5.6,11.2 L13.4,11.2 C13.7313708,11.2 14,10.9313708 14,10.6 C14,10.2686292 13.7313708,10 13.4,10 Z M11.4,6 L5.6,6 C5.26862915,6 5,6.26862915 5,6.6 C5,6.93137085 5.26862915,7.2 5.6,7.2 L11.4,7.2 C11.7313708,7.2 12,6.93137085 12,6.6 C12,6.26862915 11.7313708,6 11.4,6 Z" id="形状结合" fill="currentColor"></path>
                </g>
            </g>
        </g>
    </g>
</svg>
