<svg width="1em" height="1em" viewBox="0 0 16 16" version="1.1" xmlns="http://www.w3.org/2000/svg" xmlns:xlink="http://www.w3.org/1999/xlink">
    <title>编组 15</title>
    <g id="页面-1" stroke="none" stroke-width="1" fill="none" fill-rule="evenodd">
        <g id="智能体" transform="translate(-30, -236)">
            <g id="编组-29备份-23" transform="translate(12, 220)">
                <g id="编组-15" transform="translate(16, 14)">
                    <rect id="矩形" x="0" y="0" width="20" height="20"></rect>
                    <g id="编组-14" transform="translate(2, 2)">
                        <path d="M12,0 C14.209139,-4.05812251e-16 16,1.790861 16,4 L16,12 C16,14.209139 14.209139,16 12,16 L4,16 C1.790861,16 2.705415e-16,14.209139 0,12 L0,4 C-2.705415e-16,1.790861 1.790861,4.05812251e-16 4,0 L12,0 Z M6.4,10 L3.6,10 C3.26862915,10 3,10.2686292 3,10.6 C3,10.9313708 3.26862915,11.2 3.6,11.2 L6.4,11.2 C6.73137085,11.2 7,10.9313708 7,10.6 C7,10.2686292 6.73137085,10 6.4,10 Z M11.4,5 L3.6,5 C3.26862915,5 3,5.26862915 3,5.6 C3,5.93137085 3.26862915,6.2 3.6,6.2 L11.4,6.2 C11.7313708,6.2 12,5.93137085 12,5.6 C12,5.26862915 11.7313708,5 11.4,5 Z" id="形状结合" fill="currentColor"></path>
                        <g id="编组-13" transform="translate(6.4, 1.6)"></g>
                    </g>
                </g>
            </g>
        </g>
    </g>
</svg>
