<?xml version="1.0" encoding="UTF-8"?>
<svg width="32px" height="32px" viewBox="0 0 32 32" version="1.1" xmlns="http://www.w3.org/2000/svg" xmlns:xlink="http://www.w3.org/1999/xlink">
    <title>编组 7备份</title>
    <defs>
        <rect id="path-1" x="0" y="0" width="32" height="32" rx="4"></rect>
        <mask id="mask-2" maskContentUnits="userSpaceOnUse" maskUnits="objectBoundingBox" x="0" y="0" width="32" height="32" fill="white">
            <use xlink:href="#path-1"></use>
        </mask>
    </defs>
    <g id="页面-1" stroke="none" stroke-width="1" fill="none" fill-rule="evenodd">
        <g id="我的素材" transform="translate(-357, -142)">
            <g id="编组-7备份" transform="translate(357, 142)">
                <use id="矩形备份-4" stroke="#F0F0F0" mask="url(#mask-2)" stroke-width="2" fill="#FFFFFF" stroke-dasharray="0,0" xlink:href="#path-1"></use>
                <g id="菜单" transform="translate(4, 4)" fill="currentColor" fill-rule="nonzero">
                    <rect id="矩形" opacity="0" x="0" y="0" width="24" height="24"></rect>
                    <path d="M9.29705339,3 L4.9528107,3 C3.87615527,3 3,3.8758849 3,4.95269274 L3,9.29667303 C3,10.3732634 3.87593781,11.2493658 4.9528107,11.2493658 L9.29705339,11.2493658 C10.3737088,11.2493658 11.2498641,10.3734809 11.2498641,9.29667303 L11.2498641,4.9524753 C11.2498641,3.8758849 10.3739263,3 9.29705339,3 L9.29705339,3 Z M9.9479178,9.29645558 C9.9479178,9.65524656 9.65586604,9.94728068 9.29705339,9.94728068 L4.9528107,9.94728068 C4.59399804,9.94728068 4.30194629,9.65524656 4.30194629,9.29645558 L4.30194629,4.9524753 C4.30194629,4.59368431 4.59399804,4.3016502 4.9528107,4.3016502 L9.29705339,4.3016502 C9.65586604,4.3016502 9.9479178,4.59368431 9.9479178,4.9524753 L9.9479178,9.29645558 Z M9.29705339,12.7506342 L4.9528107,12.7506342 C3.87615527,12.7506342 3,13.6265191 3,14.703327 L3,19.0473073 C3,20.1238977 3.87593781,21 4.9528107,21 L9.29705339,21 C10.3737088,21 11.2498641,20.1241151 11.2498641,19.0473073 L11.2498641,14.703327 C11.2498641,13.6267366 10.3739263,12.7506342 9.29705339,12.7506342 Z M9.9479178,19.0473073 C9.9479178,19.4060982 9.65586604,19.6981324 9.29705339,19.6981324 L4.9528107,19.6981324 C4.59399804,19.6981324 4.30194629,19.4060982 4.30194629,19.0473073 L4.30194629,14.703327 C4.30194629,14.344536 4.59399804,14.0525019 4.9528107,14.0525019 L9.29705339,14.0525019 C9.65586604,14.0525019 9.9479178,14.344536 9.9479178,14.703327 L9.9479178,19.0473073 L9.9479178,19.0473073 Z M19.0471893,3 L14.7029466,3 C13.6262912,3 12.7501359,3.8758849 12.7501359,4.95269274 L12.7501359,9.29667303 C12.7501359,10.3732634 13.6260737,11.2493658 14.7029466,11.2493658 L19.0471893,11.2493658 C20.1238447,11.2493658 21,10.3734809 21,9.29667303 L21,4.9524753 C21,3.8758849 20.1240622,3 19.0471893,3 L19.0471893,3 Z M19.6980537,9.29645558 C19.6980537,9.65524656 19.406002,9.94728068 19.0471893,9.94728068 L14.7029466,9.94728068 C14.344134,9.94728068 14.0520822,9.65524656 14.0520822,9.29645558 L14.0520822,4.9524753 C14.0520822,4.59368431 14.344134,4.3016502 14.7029466,4.3016502 L19.0471893,4.3016502 C19.406002,4.3016502 19.6980537,4.59368431 19.6980537,4.9524753 L19.6980537,9.29645558 Z M19.0471893,12.7506342 L14.7029466,12.7506342 C13.6262912,12.7506342 12.7501359,13.6265191 12.7501359,14.703327 L12.7501359,19.0473073 C12.7501359,20.1238977 13.6260737,21 14.7029466,21 L19.0471893,21 C20.1238447,21 21,20.1241151 21,19.0473073 L21,14.703327 C21,13.6267366 20.1240622,12.7506342 19.0471893,12.7506342 Z M19.6980537,19.0473073 C19.6980537,19.4060982 19.406002,19.6981324 19.0471893,19.6981324 L14.7029466,19.6981324 C14.344134,19.6981324 14.0520822,19.4060982 14.0520822,19.0473073 L14.0520822,14.703327 C14.0520822,14.344536 14.344134,14.0525019 14.7029466,14.0525019 L19.0471893,14.0525019 C19.406002,14.0525019 19.6980537,14.344536 19.6980537,14.703327 L19.6980537,19.0473073 L19.6980537,19.0473073 Z" id="形状"></path>
                </g>
            </g>
        </g>
    </g>
</svg>
