<?xml version="1.0" encoding="UTF-8"?>
<svg width="32px" height="32px" viewBox="0 0 32 32" version="1.1" xmlns="http://www.w3.org/2000/svg" xmlns:xlink="http://www.w3.org/1999/xlink">
    <title>编组 8备份 2</title>
    <defs>
        <rect id="path-1" x="0" y="0" width="32" height="32" rx="4"></rect>
        <mask id="mask-2" maskContentUnits="userSpaceOnUse" maskUnits="objectBoundingBox" x="0" y="0" width="32" height="32" fill="white">
            <use xlink:href="#path-1"></use>
        </mask>
    </defs>
    <g id="页面-1" stroke="none" stroke-width="1" fill="none" fill-rule="evenodd">
        <g id="我的素材" transform="translate(-317, -142)">
            <g id="编组-8备份-2" transform="translate(317, 142)">
                <use id="矩形" stroke="#F0F0F0" mask="url(#mask-2)" stroke-width="2" fill="#FFFFFF" stroke-dasharray="0,0" xlink:href="#path-1"></use>
                <g id="列表" transform="translate(4, 4)" fill="currentColor" fill-rule="nonzero">
                    <rect id="矩形" opacity="0" x="0" y="0" width="24" height="24"></rect>
                    <path d="M9.82117969,6.74889844 L19.5037734,6.74889844 C19.9179844,6.74889844 20.2537734,6.41310938 20.2537734,5.99889844 C20.2537734,5.5846875 19.9179844,5.24889844 19.5037734,5.24889844 L9.82117969,5.24889844 C9.40696875,5.24889844 9.07117969,5.5846875 9.07117969,5.99889844 C9.07117969,6.41310938 9.40696875,6.74889844 9.82117969,6.74889844 Z M9.82096875,12.7305469 L19.4680312,12.7305469 C19.8822422,12.7305469 20.2180312,12.3947578 20.2180312,11.9805469 C20.2180312,11.5663359 19.8822422,11.2305469 19.4680312,11.2305469 L9.82096875,11.2305469 C9.40675781,11.2305469 9.07096875,11.5663359 9.07096875,11.9805469 C9.07096875,12.3947578 9.40675781,12.7305469 9.82096875,12.7305469 Z M19.5037734,17.2453594 L9.82117969,17.2453594 C9.40696875,17.2453594 9.07117969,17.5811484 9.07117969,17.9953594 C9.07117969,18.4095703 9.40696875,18.7453594 9.82117969,18.7453594 L19.5037734,18.7453594 C19.9179844,18.7453594 20.2537734,18.4095703 20.2537734,17.9953594 C20.2537734,17.5811484 19.9179844,17.2453594 19.5037734,17.2453594 Z M4.50086719,5.99889844 C4.50086719,6.82732556 5.17244006,7.49889844 6.00086719,7.49889844 C6.82929431,7.49889844 7.50086719,6.82732556 7.50086719,5.99889844 C7.50086719,5.17047131 6.82929431,4.49889844 6.00086719,4.49889844 C5.17244006,4.49889844 4.50086719,5.17047131 4.50086719,5.99889844 Z M4.50086719,11.9715703 C4.50086719,12.7999974 5.17244006,13.4715703 6.00086719,13.4715703 C6.82929431,13.4715703 7.50086719,12.7999974 7.50086719,11.9715703 C7.50086719,11.1431432 6.82929431,10.4715703 6.00086719,10.4715703 C5.17244006,10.4715703 4.50086719,11.1431432 4.50086719,11.9715703 Z M4.50086719,17.9911172 C4.50086719,18.8195443 5.17244006,19.4911172 6.00086719,19.4911172 C6.82929431,19.4911172 7.50086719,18.8195443 7.50086719,17.9911172 C7.50086719,17.1626901 6.82929431,16.4911172 6.00086719,16.4911172 C5.17244006,16.4911172 4.50086719,17.1626901 4.50086719,17.9911172 Z" id="形状"></path>
                </g>
            </g>
        </g>
    </g>
</svg>
