<?xml version="1.0" encoding="UTF-8"?>
<svg width="120px" height="27px" viewBox="0 0 120 27" version="1.1" xmlns="http://www.w3.org/2000/svg" xmlns:xlink="http://www.w3.org/1999/xlink">
    <title>编组备份 2</title>
    <g id="页面-1" stroke="none" stroke-width="1" fill="none" fill-rule="evenodd">
        <g id="编组备份-2">
            <path d="M79.8815982,19.2506193 L76.6540538,6.04303586 L79.5588436,6.04303586 C80.8175862,6.04303586 81.8826748,6.93653709 82.1247405,8.18744003 L83.8837514,17.431125 L86.17531,8.26866844 C87.0467477,4.80837921 91.9203387,4.8083777 92.7917771,8.2524214 L95.1317468,17.4148787 L97.2296507,8.07372281 C97.5039912,6.87155572 98.5529421,6.02679033 99.7794076,6.02679033 L102.47441,6.02679033 L99.1016223,19.088164 C98.0688077,23.0683095 92.4367464,23.0033281 91.5007576,19.0069371 L89.4674099,10.3968278 L87.5147391,19.1693924 C86.6110266,23.2307648 80.8821372,23.2957469 79.8815982,19.2506193 Z" id="Fill-223" fill="#1A1A1A"></path>
            <path d="M28.7088751,1.42965135 L30.9520204,1.42965135 L30.9520204,19.2347098 C30.9520204,20.6805583 29.7739674,21.8664799 28.3377095,21.8664799 L26.094565,21.8664799 L26.094565,4.06141997 C26.094565,2.61557216 27.2564801,1.42965135 28.7088751,1.42965135 Z" id="Fill-224" fill="#1A1A1A"></path>
            <path d="M55.2394116,1.42965135 L57.4825592,1.42965135 L57.4825592,19.2347098 C57.4825592,20.6805583 56.3045032,21.8664799 54.8682461,21.8664799 L52.6251038,21.8664799 L52.6251038,4.06141997 C52.6251038,2.61557216 53.7870167,1.42965135 55.2394116,1.42965135 Z" id="Fill-225" fill="#1A1A1A"></path>
            <path d="M47.2511589,14.2795152 L39.5050543,14.2795152 L39.5050543,19.039444 C39.5050543,20.4852926 38.6497559,21.6712126 37.213498,21.6712126 L34.6153241,21.6712126 L34.2925696,4.02860953 C34.2925696,2.58276097 35.4706233,1.39684092 36.9068797,1.39684092 L50.8821458,1.39684092 L50.8821458,3.26507256 C50.8821458,4.71092112 49.7040959,5.89684092 48.2678387,5.89684092 L39.5050543,5.89684092 L39.5050543,10.0069509 L49.865472,10.0069509 L49.865472,11.6639922 C49.865472,13.10984 48.6874161,14.2795152 47.2511589,14.2795152 Z" id="Fill-226" fill="#1A1A1A"></path>
            <path d="M108.735872,21.8339337 L103.00698,6.09205332 L106.202248,6.09205332 C107.348026,6.09205332 108.348569,6.83934703 108.68746,7.92779464 L111.317907,16.310468 L114.561596,7.55414817 C114.948901,6.53068192 115.917156,5.84837109 117.014521,5.84837109 L120,5.84837109 L112.608925,25.31047 C112.22162,26.3339362 111.253361,27 110.172133,27 L106.557279,27 L108.735872,21.8339337 Z" id="Fill-227" fill="#1A1A1A"></path>
            <g id="编组-2">
                <path d="M3.55023513,21.9152089 L5.14786918,18.0812747 C5.64813909,16.8953539 6.58412635,15.9368698 7.76218006,15.4332606 C11.5061321,13.8249567 19.2522381,10.2834398 19.8170591,9.7960746 C20.5755317,9.14625484 21.5437938,7.2780232 18.6712802,6.79065875 C18.6712802,6.79065875 21.7213106,6.82314982 22.0440659,9.08127346 C22.43137,11.9079885 21.4469679,14.0036568 20.4625681,14.5397578 C19.687957,14.9783864 4.88966572,21.931456 4.88966572,21.931456 L3.55023513,21.9152089 Z" id="Fill-228" fill="#00B8A9"></path>
                <path d="M2.51748505,21.8339382 L4.16353238,17.72383 C4.69607707,16.4566815 6.0355084,15.2545159 7.29425018,14.7184141 C7.34266422,14.7021686 7.47176557,14.6534328 7.52017811,14.6209417 L11.2964057,5.8808682 C11.5707469,5.14982002 12.5874237,5.14982002 12.8456272,5.8808682 L15.0564962,11.0469337 C17.2189505,10.0722041 18.6552077,9.4061388 19.1877523,9.11371998 L16.4766141,3.03790767 C15.7988303,1.20216634 14.0720942,0 12.1517056,0 C10.2151793,0 8.50458016,1.20216634 7.82679561,3.02166063 L0,21.9476592 L2.46907176,21.9639032 C2.48520952,21.9314122 2.50134728,21.8664293 2.51748505,21.8339382 Z" id="Fill-229" fill="#0066FF"></path>
                <path d="M21.3664381,14.9619371 C21.1889227,15.1406371 21.0114103,15.2868462 20.8338949,15.3843194 C20.607967,15.5142836 19.1555713,16.21284 17.2351828,17.1225875 L17.7677267,18.7471362 C18.4132357,20.6641044 20.2045244,21.9474984 22.2056018,21.9474984 L23.9323372,21.9474984 L21.3664381,14.9619371 Z" id="Fill-230" fill="#0066FF"></path>
            </g>
            <path d="M74.507936,11.4045234 C75.5328869,11.4045234 76.3637735,10.5680888 76.3637735,9.53629256 C76.3637735,8.50449706 75.5328869,7.66806168 74.507936,7.66806168 C73.4829845,7.66806168 72.6520978,8.50449706 72.6520978,9.53629256 C72.6520978,10.5680888 73.4829845,11.4045234 74.507936,11.4045234 Z" id="Fill-231" fill="#1A1A1A"></path>
            <path d="M60.2098434,19.6246138 C61.1278434,19.6246138 61.872027,18.8754575 61.872027,17.9513278 C61.872027,17.0271974 61.1278434,16.2780418 60.2098434,16.2780418 C59.2918442,16.2780418 58.5476553,17.0271974 58.5476553,17.9513278 C58.5476553,18.8754575 59.2918442,19.6246138 60.2098434,19.6246138 Z" id="Fill-232" fill="#1A1A1A"></path>
            <path d="M65.9387336,8.77233806 C67.9236739,7.83009948 70.4572937,8.13876383 72.1194788,8.6911104 C72.2647187,8.15501012 72.7649901,7.47269929 73.3782244,7.21277153 C71.9096909,5.84814988 69.6342723,4.80843885 67.4718173,4.80843885 L67.4556788,4.80843885 C62.7273262,4.75970226 58.7897203,8.99977476 58.7897203,13.5810034 C58.7897203,14.377033 58.9026884,15.1568155 59.0963408,15.8716174 C59.3868198,15.7254068 59.7579838,15.530462 60.4034928,15.530462 C61.6138213,15.5467075 62.5820848,16.4402095 62.5820848,17.6261303 C62.5820848,17.7723401 62.5820878,17.853567 62.5498123,17.9997768 C64.5347519,18.4871412 66.5358271,18.243459 66.5358271,18.243459 C61.8074745,17.3174667 61.0812796,11.0467072 65.9387336,8.77233806 Z" id="Fill-233" fill="#1A1A1A"></path>
            <path d="M74.507864,12.1191872 C73.1522957,12.1191872 72.0387893,11.0469843 72.0387893,9.68236343 C72.0387893,9.58489099 72.0387893,9.55239993 72.0387893,9.45492674 C70.1506755,8.87008985 68.6660058,8.93507123 68.6660058,8.93507123 C70.7639097,9.47117227 71.5223824,11.5505943 71.7160348,12.6227971 C71.7321725,12.7202696 71.7483133,12.8339891 71.7644503,12.9639533 C71.7967266,13.2076355 71.8290014,13.4675633 71.8290014,13.7274903 C71.8290014,14.2798376 71.7321733,14.8159379 71.5707964,15.3195486 C71.102802,16.9278518 70.1022622,18.3899459 66.713341,19.0072746 C65.0027418,19.3159389 63.6149009,19.2184657 62.4045717,18.8285745 C62.2593326,19.234712 61.9849869,19.6408488 61.4524422,19.9170213 C62.9371126,21.3791154 65.2125335,22.2563726 67.4556773,22.2563726 L67.4879543,22.2563726 C72.0387923,22.2563726 75.9118419,18.3899466 75.9118419,13.808718 C75.9118419,13.1588982 75.8311554,12.4440971 75.7020548,11.8430139 C75.3792995,11.9567326 74.8467556,12.1191872 74.507864,12.1191872 Z" id="Fill-234" fill="#1A1A1A"></path>
        </g>
    </g>
</svg>
