<?xml version="1.0" encoding="UTF-8"?>
<svg width="14.3333333px" height="14.3333333px" viewBox="0 0 14.3333333 14.3333333" version="1.1" xmlns="http://www.w3.org/2000/svg" xmlns:xlink="http://www.w3.org/1999/xlink">
    <title>编组 25</title>
    <g id="页面-1" stroke="none" stroke-width="1" fill="none" fill-rule="evenodd">
        <g id="外观设置" transform="translate(-26.5, -887.5)">
            <g id="编组-25备份" transform="translate(0, -1)">
                <g id="编组-23" transform="translate(12, 17)">
                    <g id="编组-8" transform="translate(0, 42)">
                        <g id="编组-25" transform="translate(14, 829)">
                            <rect id="矩形" x="0" y="0" width="16" height="16"></rect>
                            <g id="编组" transform="translate(1, 1)" stroke="currentColor" stroke-linejoin="round">
                                <path d="M6.66666667,13.3333333 C8.65336667,13.3333333 7.4453,10.3786667 8.66666667,9 C9.7088,7.82363333 13.3333333,8.36186667 13.3333333,6.66666667 C13.3333333,2.98476667 10.3485667,0 6.66666667,0 C2.98476667,0 0,2.98476667 0,6.66666667 C0,10.3485667 2.98476667,13.3333333 6.66666667,13.3333333 Z" id="路径"></path>
                                <path d="M8,4.33333333 C8.5523,4.33333333 9,3.88563333 9,3.33333333 C9,2.78103333 8.5523,2.33333333 8,2.33333333 C7.4477,2.33333333 7,2.78103333 7,3.33333333 C7,3.88563333 7.4477,4.33333333 8,4.33333333 Z" id="路径"></path>
                                <path d="M4,5.66666667 C4.5523,5.66666667 5,5.21896667 5,4.66666667 C5,4.11436667 4.5523,3.66666667 4,3.66666667 C3.4477,3.66666667 3,4.11436667 3,4.66666667 C3,5.21896667 3.4477,5.66666667 4,5.66666667 Z" id="路径"></path>
                                <path d="M4.33333333,10 C4.88563333,10 5.33333333,9.5523 5.33333333,9 C5.33333333,8.4477 4.88563333,8 4.33333333,8 C3.78103333,8 3.33333333,8.4477 3.33333333,9 C3.33333333,9.5523 3.78103333,10 4.33333333,10 Z" id="路径"></path>
                            </g>
                        </g>
                    </g>
                </g>
            </g>
        </g>
    </g>
</svg>
