<?xml version="1.0" encoding="UTF-8"?>
<svg width="14px" height="14px" viewBox="0 0 14 14" version="1.1" xmlns="http://www.w3.org/2000/svg" xmlns:xlink="http://www.w3.org/1999/xlink">
  <title>编组 24备份</title>
  <g id="页面-1" stroke="none" stroke-width="1" fill="none" fill-rule="evenodd">
    <g id="画板" transform="translate(-171, -121)">
      <g id="编组-24备份" transform="translate(170, 120)">
        <rect id="矩形" x="0" y="0" width="16" height="16"></rect>
        <g id="编组-2" transform="translate(1, 1)">
          <rect id="形状结合" stroke="#495363" x="0.5" y="0.5" width="13" height="13" rx="2.51968503"></rect>
          <rect id="矩形备份-3" fill="currentColor" x="3" y="5" width="8" height="1" rx="0.5"></rect>
          <rect id="矩形备份-4" fill="currentColor" x="3" y="8" width="8" height="1" rx="0.5"></rect>
          <path d="M6.68855607,2.24987802 L5.6139466,3.1095656 C5.39831563,3.28207037 5.36335494,3.59671656 5.53585972,3.81234752 C5.63074581,3.93095514 5.77440226,4 5.92629412,4 L8.07551306,4 C8.35165544,4 8.57551306,3.77614237 8.57551306,3.5 C8.57551306,3.34810814 8.5064682,3.20445169 8.38786059,3.1095656 L7.31325112,2.24987802 C7.13064179,2.10379056 6.87116539,2.10379056 6.68855607,2.24987802 Z" id="路径-2" fill="currentColor"></path>
          <path d="M6.68855607,10.249878 L5.6139466,11.1095656 C5.39831563,11.2820704 5.36335494,11.5967166 5.53585972,11.8123475 C5.63074581,11.9309551 5.77440226,12 5.92629412,12 L8.07551306,12 C8.35165544,12 8.57551306,11.7761424 8.57551306,11.5 C8.57551306,11.3481081 8.5064682,11.2044517 8.38786059,11.1095656 L7.31325112,10.249878 C7.13064179,10.1037906 6.87116539,10.1037906 6.68855607,10.249878 Z" id="路径-2备份" fill="currentColor" transform="translate(7.0009, 11) scale(1, -1) translate(-7.0009, -11)"></path>
        </g>
      </g>
    </g>
  </g>
</svg>
