<?xml version="1.0" encoding="UTF-8"?>
<svg width="16px" height="16.0000063px" viewBox="0 0 16 16.0000063" version="1.1" xmlns="http://www.w3.org/2000/svg" xmlns:xlink="http://www.w3.org/1999/xlink">
    <title>编组</title>
    <g id="页面-1" stroke="none" stroke-width="1" fill="none" fill-rule="evenodd">
        <g id="认证设置" transform="translate(-26, -885)" fill="currentColor" fill-rule="nonzero">
            <g id="编组-25备份" transform="translate(0, -1)">
                <g id="编组-23" transform="translate(12, 17)">
                    <g id="编组-8" transform="translate(0, 42)">
                        <g id="编组" transform="translate(14, 827)">
                            <path d="M8.00018965,16 C7.57172775,16.0012017 7.16057927,15.8309967 6.85835236,15.5272955 L5.46134565,14.1303312 L3.48515941,14.1303312 C2.59374272,14.1288141 1.8716267,13.4063095 1.87061617,12.5149191 L1.87061617,10.5387928 L0.472691575,9.1418285 C-0.157563858,8.51107763 -0.157563858,7.48897408 0.472691575,6.85822321 L1.87061617,5.46493027 L1.87061617,3.48513259 C1.8716267,2.59374223 2.59374272,1.87123761 3.48515941,1.86972049 L5.46134565,1.86972049 L6.85835236,0.472756159 C7.48943719,-0.157585386 8.51185999,-0.157585386 9.14294481,0.472756159 L10.5399515,1.86972049 L12.5152199,1.86972049 C13.4069951,1.87073212 14.1296694,2.59338449 14.130681,3.48513259 L14.130681,5.46493027 L15.5276877,6.85822321 C16.1574374,7.48918335 16.1574374,8.51086836 15.5276877,9.1418285 L14.130681,10.5387928 L14.130681,12.5149191 C14.1296694,13.4066672 13.4069951,14.1293196 12.5152199,14.1303312 L10.5399515,14.1303312 L9.14294481,15.5272955 C8.84026205,15.8308769 8.42888881,16.0010382 8.00018965,16 L8.00018965,16 Z M3.48515941,2.97113783 C3.20163784,2.97164411 2.97206647,3.20161918 2.97206693,3.48513259 L2.97206693,5.68796728 C2.97193839,5.83397509 2.91383138,5.9739559 2.81052082,6.07713474 L1.25013224,7.63747598 C1.15372525,7.7338702 1.09956355,7.86461473 1.09956355,8.0009437 C1.09956355,8.13727267 1.15372525,8.2680172 1.25013224,8.36441142 L2.81052082,9.92475266 C2.91383138,10.0279315 2.97193839,10.1679123 2.97206693,10.3139201 L2.97206693,12.5167548 C2.97206647,12.8002682 3.20163784,13.0302433 3.48515941,13.0307496 L5.68806093,13.0307496 C5.8355818,13.0286768 5.97776596,13.0858794 6.08274745,13.1895372 L7.64313603,14.7498785 C7.73953318,14.8462825 7.87028167,14.9004426 8.00661478,14.9004426 C8.14294789,14.9004426 8.27369638,14.8462825 8.37009353,14.7498785 L9.93048211,13.1895372 C10.0338142,13.0865664 10.1737808,13.0287989 10.3196614,13.0289139 L12.5225629,13.0289139 C12.806443,13.0289139 13.0365733,12.7987906 13.0365733,12.5149191 L13.0365733,10.3120844 C13.0367018,10.1660766 13.0948088,10.0260958 13.1981194,9.92291697 L14.7585079,8.36257573 C14.9587607,8.16163493 14.9587607,7.83658108 14.7585079,7.63564028 L13.1981194,6.07529905 C13.0948088,5.97212021 13.0367018,5.8321394 13.0365733,5.68613158 L13.0365733,3.4832969 C13.0365733,3.19942543 12.806443,2.96930214 12.5225629,2.96930214 L10.3196614,2.96930214 C10.1736491,2.9691736 10.0336641,2.91106836 9.93048211,2.80776093 L8.37009353,1.24741969 C8.27369638,1.15101563 8.14294789,1.09685557 8.00661478,1.09685557 C7.87028167,1.09685557 7.73953318,1.15101563 7.64313603,1.24741969 L6.08274745,2.80776093 C5.9793407,2.91129339 5.83898064,2.96941721 5.69265031,2.96930214 L3.48515941,2.97113783 Z" id="形状"></path>
                            <path d="M7.31453655,10.248753 C7.0318242,10.2488431 6.7623207,10.1291045 6.57289304,9.91924557 L5.03269773,8.2083773 C4.84969946,7.98030858 4.87685302,7.64898927 5.09454324,7.45375732 C5.31223347,7.25852537 5.64455364,7.26745651 5.85144279,7.47409907 L7.30994717,9.09410041 L10.0066658,5.70357069 C10.1962571,5.46557489 10.5428908,5.42633066 10.7808939,5.61591624 C11.0188969,5.80550182 11.0581423,6.15212503 10.868551,6.39012084 L8.09564872,9.87059964 C7.91293235,10.1003925 7.63827933,10.2380506 7.34482645,10.2469172 L7.31453655,10.248753 Z" id="路径"></path>
                        </g>
                    </g>
                </g>
            </g>
        </g>
    </g>
</svg>
